<svg width="90" height="38" viewBox="0 0 90 38" fill="none" xmlns="http://www.w3.org/2000/svg">
<path d="M4 0.5H86C87.933 0.5 89.5 2.067 89.5 4V34C89.5 35.933 87.933 37.5 86 37.5H4C2.067 37.5 0.5 35.933 0.5 34V4L0.504883 3.82031C0.598422 1.97083 2.12727 0.5 4 0.5Z" fill="white"/>
<path d="M4 0.5H86C87.933 0.5 89.5 2.067 89.5 4V34C89.5 35.933 87.933 37.5 86 37.5H4C2.067 37.5 0.5 35.933 0.5 34V4L0.504883 3.82031C0.598422 1.97083 2.12727 0.5 4 0.5Z" stroke="#38AEE0" stroke-linecap="round"/>
<path d="M32.134 24V14.662H34.92C35.8813 14.662 36.614 14.8767 37.118 15.306C37.622 15.7353 37.874 16.314 37.874 17.042C37.874 17.6393 37.6967 18.1013 37.342 18.428C36.9873 18.7453 36.53 18.9507 35.97 19.044C36.25 19.072 36.53 19.1327 36.81 19.226C37.09 19.31 37.342 19.4453 37.566 19.632C37.7993 19.8187 37.986 20.0567 38.126 20.346C38.2753 20.626 38.35 20.976 38.35 21.396C38.35 21.7973 38.2753 22.1613 38.126 22.488C37.986 22.8053 37.79 23.076 37.538 23.3C37.286 23.524 36.9873 23.6967 36.642 23.818C36.2967 23.9393 35.9187 24 35.508 24H32.134ZM33.254 18.624H34.822C35.41 18.624 35.8673 18.4887 36.194 18.218C36.53 17.938 36.698 17.546 36.698 17.042C36.698 16.5847 36.5487 16.2347 36.25 15.992C35.9607 15.7493 35.5313 15.628 34.962 15.628H33.254V18.624ZM33.254 23.034H35.41C35.942 23.034 36.3667 22.9033 36.684 22.642C37.0013 22.3713 37.16 21.956 37.16 21.396C37.16 20.7987 36.964 20.3507 36.572 20.052C36.1893 19.744 35.62 19.59 34.864 19.59H33.254V23.034ZM43.4416 24L43.3856 23.426C43.1523 23.6593 42.8816 23.8413 42.5736 23.972C42.275 24.0933 41.9436 24.154 41.5796 24.154C41.2903 24.154 41.0056 24.1073 40.7256 24.014C40.455 23.93 40.2123 23.804 39.9976 23.636C39.7923 23.4587 39.6243 23.2393 39.4936 22.978C39.363 22.7167 39.2976 22.4133 39.2976 22.068C39.2976 21.592 39.4236 21.2 39.6756 20.892C39.937 20.5747 40.2636 20.3273 40.6556 20.15C41.0476 19.9727 41.4816 19.8467 41.9576 19.772C42.4336 19.6973 42.8956 19.66 43.3436 19.66V19.576C43.3436 19.016 43.2223 18.6147 42.9796 18.372C42.7463 18.1293 42.4056 18.008 41.9576 18.008C41.6496 18.008 41.365 18.078 41.1036 18.218C40.8516 18.3487 40.637 18.526 40.4596 18.75L39.7036 18.218C39.9743 17.854 40.2916 17.588 40.6556 17.42C41.029 17.2427 41.4956 17.154 42.0556 17.154C42.8023 17.154 43.381 17.3453 43.7916 17.728C44.2116 18.1107 44.4216 18.75 44.4216 19.646V24H43.4416ZM43.3436 20.514C43.0356 20.5233 42.709 20.5467 42.3636 20.584C42.0183 20.6213 41.6963 20.696 41.3976 20.808C41.1083 20.9107 40.8656 21.0647 40.6696 21.27C40.483 21.4753 40.3896 21.746 40.3896 22.082C40.3896 22.2967 40.4316 22.4787 40.5156 22.628C40.5996 22.7773 40.7023 22.9033 40.8236 23.006C40.9543 23.0993 41.0943 23.1693 41.2436 23.216C41.4023 23.2533 41.5563 23.272 41.7056 23.272C42.0323 23.272 42.331 23.2067 42.6016 23.076C42.8816 22.936 43.129 22.7727 43.3436 22.586V20.514ZM51.6138 22.572C51.3525 23.1133 50.9931 23.5147 50.5358 23.776C50.0878 24.028 49.6118 24.154 49.1078 24.154C48.7158 24.154 48.3285 24.084 47.9458 23.944C47.5725 23.804 47.2411 23.5893 46.9518 23.3C46.6625 23.0107 46.4291 22.6513 46.2518 22.222C46.0745 21.7833 45.9858 21.27 45.9858 20.682C45.9858 20.0567 46.0745 19.52 46.2518 19.072C46.4291 18.624 46.6625 18.26 46.9518 17.98C47.2411 17.6907 47.5678 17.4807 47.9318 17.35C48.2958 17.2193 48.6598 17.154 49.0238 17.154C49.3971 17.154 49.7238 17.21 50.0038 17.322C50.2931 17.434 50.5358 17.574 50.7318 17.742C50.9371 17.91 51.1005 18.0873 51.2218 18.274C51.3525 18.4607 51.4458 18.6287 51.5018 18.778L50.7038 19.282C50.5078 18.834 50.2605 18.512 49.9618 18.316C49.6631 18.12 49.3505 18.022 49.0238 18.022C48.7718 18.022 48.5291 18.0827 48.2958 18.204C48.0625 18.316 47.8525 18.484 47.6658 18.708C47.4791 18.932 47.3298 19.2073 47.2178 19.534C47.1058 19.8607 47.0498 20.234 47.0498 20.654C47.0498 21.074 47.1058 21.4473 47.2178 21.774C47.3298 22.1007 47.4791 22.376 47.6658 22.6C47.8618 22.824 48.0858 22.9967 48.3378 23.118C48.5991 23.23 48.8745 23.286 49.1638 23.286C49.4905 23.286 49.8031 23.1927 50.1018 23.006C50.4098 22.8193 50.6618 22.516 50.8578 22.096L51.6138 22.572ZM52.9387 24V14.662L54.0167 14.48V19.856L56.7187 17.322H58.0907L55.8087 19.478L58.6787 24H57.4327L55.0107 20.22L54.0167 21.13V24H52.9387Z" fill="#38AEE0"/>
</svg>
