<svg width="129" height="38" viewBox="0 0 129 38" fill="none" xmlns="http://www.w3.org/2000/svg">
<mask id="path-1-inside-1_3312_61917" fill="white">
<path d="M0 4C0 1.79086 1.79086 0 4 0H125C127.209 0 129 1.79086 129 4V34C129 36.2091 127.209 38 125 38H4C1.79086 38 0 36.2091 0 34V4Z"/>
</mask>
<path d="M0 4C0 1.79086 1.79086 0 4 0H125C127.209 0 129 1.79086 129 4V34C129 36.2091 127.209 38 125 38H4C1.79086 38 0 36.2091 0 34V4Z" fill="white"/>
<path d="M4 0V1H125V0V-1H4V0ZM129 4H128V34H129H130V4H129ZM125 38V37H4V38V39H125V38ZM0 34H1V4H0H-1V34H0ZM4 38V37C2.34315 37 1 35.6569 1 34H0H-1C-1 36.7614 1.23858 39 4 39V38ZM129 34H128C128 35.6569 126.657 37 125 37V38V39C127.761 39 130 36.7614 130 34H129ZM125 0V1C126.657 1 128 2.34315 128 4H129H130C130 1.23858 127.761 -1 125 -1V0ZM4 0V-1C1.23858 -1 -1 1.23858 -1 4H0H1C1 2.34315 2.34315 1 4 1V0Z" fill="#38AEE0" mask="url(#path-1-inside-1_3312_61917)"/>
<path d="M23.3333 25V19.6667H16.6667V25M16.6667 13V16.3333H22M24.6667 25H15.3333C14.9797 25 14.6406 24.8595 14.3905 24.6095C14.1405 24.3594 14 24.0203 14 23.6667V14.3333C14 13.9797 14.1405 13.6406 14.3905 13.3905C14.6406 13.1405 14.9797 13 15.3333 13H22.6667L26 16.3333V23.6667C26 24.0203 25.8595 24.3594 25.6095 24.6095C25.3594 24.8595 25.0203 25 24.6667 25Z" stroke="#38AEE0" stroke-linecap="round" stroke-linejoin="round"/>
<path d="M37.806 21.522C38.0207 21.8767 38.31 22.1473 38.674 22.334C39.038 22.5113 39.4487 22.6 39.906 22.6C40.382 22.6 40.76 22.5067 41.04 22.32C41.3293 22.1333 41.474 21.886 41.474 21.578C41.474 21.382 41.4413 21.2093 41.376 21.06C41.3107 20.9107 41.1987 20.7707 41.04 20.64C40.8813 20.5093 40.662 20.3833 40.382 20.262C40.102 20.1313 39.7473 19.9913 39.318 19.842C38.9167 19.702 38.5527 19.5527 38.226 19.394C37.9087 19.2353 37.6333 19.0487 37.4 18.834C37.176 18.6193 37.0033 18.372 36.882 18.092C36.7607 17.8027 36.7 17.462 36.7 17.07C36.7 16.6873 36.7653 16.3373 36.896 16.02C37.036 15.7027 37.2413 15.4273 37.512 15.194C37.792 14.9607 38.1373 14.7833 38.548 14.662C38.9587 14.5313 39.4393 14.466 39.99 14.466C40.4473 14.466 40.8487 14.5127 41.194 14.606C41.5487 14.69 41.852 14.8067 42.104 14.956C42.3653 15.1053 42.5893 15.278 42.776 15.474C42.9627 15.67 43.126 15.8753 43.266 16.09L41.908 17.056C41.74 16.748 41.502 16.5007 41.194 16.314C40.886 16.118 40.48 16.02 39.976 16.02C39.5 16.02 39.136 16.104 38.884 16.272C38.6413 16.44 38.52 16.6593 38.52 16.93C38.52 17.2567 38.674 17.5273 38.982 17.742C39.2993 17.9473 39.78 18.1667 40.424 18.4C40.9 18.568 41.3153 18.7453 41.67 18.932C42.034 19.1187 42.3373 19.3333 42.58 19.576C42.8227 19.8093 43.0047 20.08 43.126 20.388C43.2567 20.696 43.322 21.06 43.322 21.48C43.322 21.9373 43.224 22.3387 43.028 22.684C42.8413 23.02 42.5893 23.3 42.272 23.524C41.964 23.748 41.6047 23.916 41.194 24.028C40.7833 24.14 40.3633 24.196 39.934 24.196C38.2353 24.196 37.0453 23.622 36.364 22.474L37.806 21.522ZM48.4273 24L48.3433 23.496C48.1473 23.7013 47.8953 23.8647 47.5873 23.986C47.2886 24.098 46.9573 24.154 46.5933 24.154C46.2946 24.154 46.0006 24.1027 45.7113 24C45.4313 23.9067 45.184 23.7713 44.9693 23.594C44.7546 23.4073 44.582 23.1833 44.4513 22.922C44.3206 22.6513 44.2553 22.348 44.2553 22.012C44.2553 21.5173 44.386 21.1207 44.6473 20.822C44.918 20.514 45.254 20.276 45.6553 20.108C46.0566 19.94 46.4906 19.8233 46.9573 19.758C47.424 19.6927 47.858 19.646 48.2593 19.618V19.394C48.2593 19.114 48.1753 18.8947 48.0073 18.736C47.8486 18.568 47.606 18.484 47.2793 18.484C47.018 18.484 46.78 18.54 46.5653 18.652C46.36 18.7547 46.178 18.8993 46.0193 19.086L44.7733 18.218C44.9506 17.994 45.1513 17.8073 45.3753 17.658C45.6086 17.5087 45.842 17.392 46.0753 17.308C46.318 17.224 46.556 17.168 46.7893 17.14C47.0226 17.1027 47.2373 17.084 47.4333 17.084C47.8253 17.084 48.1846 17.1353 48.5113 17.238C48.838 17.3313 49.118 17.4853 49.3513 17.7C49.594 17.9053 49.7806 18.1713 49.9113 18.498C50.042 18.8153 50.1073 19.2027 50.1073 19.66V24H48.4273ZM48.2733 20.85C48.012 20.8687 47.746 20.892 47.4753 20.92C47.214 20.948 46.976 20.9993 46.7613 21.074C46.5466 21.1487 46.3693 21.2607 46.2293 21.41C46.0986 21.55 46.0333 21.7367 46.0333 21.97C46.0333 22.194 46.1173 22.376 46.2853 22.516C46.4533 22.6467 46.7006 22.712 47.0273 22.712C47.2606 22.712 47.4846 22.6653 47.6993 22.572C47.9233 22.4787 48.1146 22.362 48.2733 22.222V20.85ZM53.6793 24L50.6973 17.252H52.6433L54.5053 21.732L56.2973 17.252H58.1593L55.2613 24H53.6793ZM60.2127 21.06C60.2407 21.34 60.3013 21.5827 60.3947 21.788C60.488 21.9933 60.6047 22.1613 60.7447 22.292C60.8847 22.4227 61.0387 22.5207 61.2067 22.586C61.384 22.642 61.566 22.67 61.7527 22.67C62.0793 22.67 62.3733 22.614 62.6347 22.502C62.896 22.3807 63.1667 22.124 63.4467 21.732L64.8047 22.558C64.4127 23.146 63.9647 23.5613 63.4607 23.804C62.966 24.0373 62.378 24.154 61.6967 24.154C61.2487 24.154 60.824 24.084 60.4227 23.944C60.0213 23.804 59.6667 23.5893 59.3587 23.3C59.06 23.0013 58.822 22.6327 58.6447 22.194C58.4673 21.7553 58.3787 21.2327 58.3787 20.626C58.3787 20.0567 58.4627 19.5527 58.6307 19.114C58.808 18.6753 59.046 18.3067 59.3447 18.008C59.6433 17.7093 59.9887 17.4807 60.3807 17.322C60.782 17.1633 61.2067 17.084 61.6547 17.084C62.5973 17.084 63.3533 17.4153 63.9227 18.078C64.5013 18.7313 64.8 19.7253 64.8187 21.06H60.2127ZM62.9567 19.814C62.938 19.59 62.8867 19.394 62.8027 19.226C62.728 19.058 62.63 18.918 62.5087 18.806C62.3873 18.694 62.252 18.61 62.1027 18.554C61.9533 18.498 61.804 18.47 61.6547 18.47C61.3373 18.47 61.0387 18.5913 60.7587 18.834C60.4787 19.0673 60.3107 19.394 60.2547 19.814H62.9567ZM72.6949 24L72.6109 23.496C72.4149 23.7013 72.1629 23.8647 71.8549 23.986C71.5562 24.098 71.2249 24.154 70.8609 24.154C70.5622 24.154 70.2682 24.1027 69.9789 24C69.6989 23.9067 69.4515 23.7713 69.2369 23.594C69.0222 23.4073 68.8495 23.1833 68.7189 22.922C68.5882 22.6513 68.5229 22.348 68.5229 22.012C68.5229 21.5173 68.6535 21.1207 68.9149 20.822C69.1855 20.514 69.5215 20.276 69.9229 20.108C70.3242 19.94 70.7582 19.8233 71.2249 19.758C71.6915 19.6927 72.1255 19.646 72.5269 19.618V19.394C72.5269 19.114 72.4429 18.8947 72.2749 18.736C72.1162 18.568 71.8735 18.484 71.5469 18.484C71.2855 18.484 71.0475 18.54 70.8329 18.652C70.6275 18.7547 70.4455 18.8993 70.2869 19.086L69.0409 18.218C69.2182 17.994 69.4189 17.8073 69.6429 17.658C69.8762 17.5087 70.1095 17.392 70.3429 17.308C70.5855 17.224 70.8235 17.168 71.0569 17.14C71.2902 17.1027 71.5049 17.084 71.7009 17.084C72.0929 17.084 72.4522 17.1353 72.7789 17.238C73.1055 17.3313 73.3855 17.4853 73.6189 17.7C73.8615 17.9053 74.0482 18.1713 74.1789 18.498C74.3095 18.8153 74.3749 19.2027 74.3749 19.66V24H72.6949ZM72.5409 20.85C72.2795 20.8687 72.0135 20.892 71.7429 20.92C71.4815 20.948 71.2435 20.9993 71.0289 21.074C70.8142 21.1487 70.6369 21.2607 70.4969 21.41C70.3662 21.55 70.3009 21.7367 70.3009 21.97C70.3009 22.194 70.3849 22.376 70.5529 22.516C70.7209 22.6467 70.9682 22.712 71.2949 22.712C71.5282 22.712 71.7522 22.6653 71.9669 22.572C72.1909 22.4787 72.3822 22.362 72.5409 22.222V20.85ZM77.0023 21.732C77.1609 22.0307 77.3849 22.2827 77.6743 22.488C77.9636 22.684 78.3463 22.782 78.8223 22.782C79.5596 22.782 79.9283 22.5627 79.9283 22.124C79.9283 22.0307 79.9049 21.942 79.8583 21.858C79.8209 21.774 79.7416 21.6947 79.6203 21.62C79.4989 21.5453 79.3356 21.4753 79.1303 21.41C78.9249 21.3447 78.6636 21.2793 78.3463 21.214C77.9916 21.1393 77.6649 21.0507 77.3663 20.948C77.0769 20.836 76.8296 20.7007 76.6243 20.542C76.4189 20.374 76.2603 20.178 76.1483 19.954C76.0363 19.7207 75.9803 19.4407 75.9803 19.114C75.9803 18.8153 76.0456 18.5447 76.1763 18.302C76.3069 18.05 76.4889 17.8353 76.7223 17.658C76.9649 17.4713 77.2589 17.3313 77.6043 17.238C77.9496 17.1353 78.3323 17.084 78.7523 17.084C79.5176 17.084 80.1243 17.21 80.5723 17.462C81.0203 17.7047 81.3656 18.0033 81.6083 18.358L80.3203 19.24C80.1523 19.016 79.9376 18.8293 79.6763 18.68C79.4149 18.5307 79.1069 18.456 78.7523 18.456C78.3696 18.456 78.0989 18.5167 77.9403 18.638C77.7909 18.75 77.7163 18.8993 77.7163 19.086C77.7163 19.3007 77.8096 19.4547 77.9963 19.548C78.1829 19.6413 78.5283 19.7393 79.0323 19.842C79.4429 19.926 79.8069 20.0287 80.1243 20.15C80.4509 20.262 80.7263 20.402 80.9503 20.57C81.1743 20.738 81.3423 20.9433 81.4543 21.186C81.5756 21.4193 81.6363 21.704 81.6363 22.04C81.6363 22.404 81.5616 22.7213 81.4123 22.992C81.2629 23.2533 81.0576 23.4727 80.7963 23.65C80.5349 23.818 80.2269 23.944 79.8723 24.028C79.5176 24.112 79.1396 24.154 78.7383 24.154C77.9356 24.154 77.2823 24.0047 76.7783 23.706C76.2836 23.398 75.9056 23.0153 75.6443 22.558L77.0023 21.732ZM85.9139 24V14.662H88.6859C89.0406 14.662 89.4326 14.69 89.8619 14.746C90.2913 14.7927 90.7019 14.9047 91.0939 15.082C91.5046 15.2687 91.8593 15.5067 92.1579 15.796C92.4566 16.0853 92.7039 16.4167 92.8999 16.79C93.0959 17.154 93.2406 17.5507 93.3339 17.98C93.4366 18.4 93.4879 18.834 93.4879 19.282C93.4879 19.7207 93.4366 20.1547 93.3339 20.584C93.2406 21.004 93.0913 21.4007 92.8859 21.774C92.6899 22.1473 92.4379 22.488 92.1299 22.796C91.8313 23.0947 91.4813 23.3373 91.0799 23.524C90.4079 23.8413 89.6333 24 88.7559 24H85.9139ZM87.8039 22.32H88.5599C89.2506 22.32 89.8153 22.2033 90.2539 21.97C90.7019 21.7367 91.0333 21.382 91.2479 20.906C91.4626 20.4207 91.5699 19.9073 91.5699 19.366C91.5699 18.834 91.4719 18.3347 91.2759 17.868C91.0893 17.392 90.7859 17.0233 90.3659 16.762C90.1513 16.622 89.8853 16.5193 89.5679 16.454C89.2506 16.3793 88.9286 16.342 88.6019 16.342H87.8039V22.32ZM95.0291 24V17.42L96.6811 17.168L96.7791 17.84C97.0311 17.5693 97.2831 17.3827 97.5351 17.28C97.7965 17.168 98.0671 17.112 98.3471 17.112C98.5058 17.112 98.6738 17.1307 98.8511 17.168C99.0285 17.2053 99.2105 17.2567 99.3971 17.322L99.0751 18.904C98.8885 18.8293 98.7111 18.7733 98.5431 18.736C98.3845 18.6893 98.2258 18.666 98.0671 18.666C97.8058 18.666 97.5678 18.7267 97.3531 18.848C97.1478 18.9693 96.9845 19.1093 96.8631 19.268V24H95.0291ZM103.826 24L103.742 23.496C103.546 23.7013 103.294 23.8647 102.986 23.986C102.687 24.098 102.356 24.154 101.992 24.154C101.693 24.154 101.399 24.1027 101.11 24C100.83 23.9067 100.582 23.7713 100.368 23.594C100.153 23.4073 99.9804 23.1833 99.8497 22.922C99.7191 22.6513 99.6537 22.348 99.6537 22.012C99.6537 21.5173 99.7844 21.1207 100.046 20.822C100.316 20.514 100.652 20.276 101.054 20.108C101.455 19.94 101.889 19.8233 102.356 19.758C102.822 19.6927 103.256 19.646 103.658 19.618V19.394C103.658 19.114 103.574 18.8947 103.406 18.736C103.247 18.568 103.004 18.484 102.678 18.484C102.416 18.484 102.178 18.54 101.964 18.652C101.758 18.7547 101.576 18.8993 101.418 19.086L100.172 18.218C100.349 17.994 100.55 17.8073 100.774 17.658C101.007 17.5087 101.24 17.392 101.474 17.308C101.716 17.224 101.954 17.168 102.188 17.14C102.421 17.1027 102.636 17.084 102.832 17.084C103.224 17.084 103.583 17.1353 103.91 17.238C104.236 17.3313 104.516 17.4853 104.75 17.7C104.992 17.9053 105.179 18.1713 105.31 18.498C105.44 18.8153 105.506 19.2027 105.506 19.66V24H103.826ZM103.672 20.85C103.41 20.8687 103.144 20.892 102.874 20.92C102.612 20.948 102.374 20.9993 102.16 21.074C101.945 21.1487 101.768 21.2607 101.628 21.41C101.497 21.55 101.432 21.7367 101.432 21.97C101.432 22.194 101.516 22.376 101.684 22.516C101.852 22.6467 102.099 22.712 102.426 22.712C102.659 22.712 102.883 22.6653 103.098 22.572C103.322 22.4787 103.513 22.362 103.672 22.222V20.85ZM107.531 24V18.652H106.593V17.252H107.531V17.014C107.531 16.566 107.592 16.1833 107.713 15.866C107.834 15.5487 107.998 15.2873 108.203 15.082C108.418 14.8673 108.665 14.7133 108.945 14.62C109.234 14.5173 109.547 14.466 109.883 14.466C110.331 14.466 110.718 14.5033 111.045 14.578C111.381 14.6433 111.684 14.7413 111.955 14.872L111.423 16.272C111.031 16.0853 110.616 15.992 110.177 15.992C109.944 15.992 109.748 16.0667 109.589 16.216C109.43 16.3653 109.351 16.636 109.351 17.028V17.252H110.989L110.765 18.652H109.365V24H107.531ZM114.643 18.652V22.096C114.643 22.3107 114.69 22.46 114.783 22.544C114.886 22.6187 114.984 22.656 115.077 22.656C115.264 22.656 115.446 22.6093 115.623 22.516C115.8 22.4227 115.954 22.3247 116.085 22.222L116.743 23.468C116.435 23.6733 116.113 23.8413 115.777 23.972C115.441 24.0933 115.077 24.154 114.685 24.154C114.452 24.154 114.223 24.1213 113.999 24.056C113.775 23.9907 113.574 23.888 113.397 23.748C113.229 23.608 113.089 23.426 112.977 23.202C112.874 22.9687 112.823 22.6887 112.823 22.362V18.652H111.829V17.252H112.823V15.684L114.643 15.404V17.252H116.393L116.169 18.652H114.643Z" fill="#38AEE0"/>
</svg>
