<svg width="324" height="40" viewBox="0 0 324 40" fill="none" xmlns="http://www.w3.org/2000/svg">
<rect width="324" height="40" rx="20" fill="#E8E8E8"/>
<path d="M106.134 24V14.662H109.046C110.119 14.662 110.913 14.9 111.426 15.376C111.949 15.852 112.21 16.5567 112.21 17.49C112.21 18.3953 111.935 19.0813 111.384 19.548C110.843 20.0147 110.049 20.248 109.004 20.248H107.254V24H106.134ZM107.254 19.268H109.088C109.657 19.268 110.119 19.128 110.474 18.848C110.829 18.568 111.006 18.106 111.006 17.462C111.006 16.818 110.838 16.3513 110.502 16.062C110.166 15.7727 109.69 15.628 109.074 15.628H107.254V19.268ZM114.118 20.598C114.118 21.4473 114.309 22.11 114.692 22.586C115.075 23.0527 115.63 23.286 116.358 23.286C116.778 23.286 117.133 23.1833 117.422 22.978C117.711 22.7727 117.945 22.5207 118.122 22.222L118.836 22.698C118.593 23.118 118.276 23.468 117.884 23.748C117.501 24.0187 116.983 24.154 116.33 24.154C115.826 24.154 115.373 24.0793 114.972 23.93C114.571 23.7713 114.225 23.5473 113.936 23.258C113.656 22.9593 113.437 22.5907 113.278 22.152C113.129 21.7133 113.054 21.2047 113.054 20.626C113.054 20.094 113.124 19.618 113.264 19.198C113.413 18.7687 113.614 18.4047 113.866 18.106C114.127 17.798 114.44 17.5647 114.804 17.406C115.177 17.238 115.588 17.154 116.036 17.154C116.531 17.154 116.96 17.238 117.324 17.406C117.697 17.574 118.005 17.812 118.248 18.12C118.491 18.4187 118.673 18.7827 118.794 19.212C118.915 19.632 118.976 20.094 118.976 20.598H114.118ZM117.758 19.744C117.749 19.4547 117.693 19.2027 117.59 18.988C117.487 18.764 117.357 18.582 117.198 18.442C117.039 18.2927 116.857 18.1853 116.652 18.12C116.447 18.0453 116.241 18.008 116.036 18.008C115.588 18.008 115.201 18.1433 114.874 18.414C114.557 18.6753 114.337 19.1187 114.216 19.744H117.758ZM121.466 17.238L121.55 17.854C121.82 17.6487 122.138 17.4807 122.502 17.35C122.875 17.2193 123.262 17.154 123.664 17.154C124.578 17.154 125.222 17.3827 125.596 17.84C125.978 18.288 126.17 18.9553 126.17 19.842V24H125.092V19.814C125.092 19.254 124.966 18.8153 124.714 18.498C124.462 18.1807 124.051 18.022 123.482 18.022C123.127 18.022 122.777 18.1013 122.432 18.26C122.096 18.4093 121.806 18.5773 121.564 18.764V24H120.486V17.406L121.466 17.238ZM132.512 24L132.428 23.454C132.185 23.706 131.919 23.888 131.63 24C131.35 24.1027 131.042 24.154 130.706 24.154C130.23 24.154 129.805 24.0653 129.432 23.888C129.068 23.7013 128.76 23.4493 128.508 23.132C128.256 22.8147 128.064 22.4413 127.934 22.012C127.803 21.5733 127.738 21.102 127.738 20.598C127.738 20.1687 127.803 19.7487 127.934 19.338C128.074 18.918 128.274 18.5493 128.536 18.232C128.806 17.9053 129.142 17.644 129.544 17.448C129.945 17.252 130.412 17.154 130.944 17.154C131.28 17.154 131.569 17.182 131.812 17.238C132.054 17.2847 132.26 17.3407 132.428 17.406V14.662L133.506 14.48V24H132.512ZM132.428 18.344C132.372 18.3067 132.292 18.2693 132.19 18.232C132.096 18.1947 131.989 18.162 131.868 18.134C131.746 18.0967 131.62 18.0687 131.49 18.05C131.359 18.0313 131.233 18.022 131.112 18.022C130.72 18.022 130.379 18.0967 130.09 18.246C129.8 18.3953 129.558 18.596 129.362 18.848C129.175 19.0907 129.035 19.3707 128.942 19.688C128.848 20.0053 128.802 20.3273 128.802 20.654C128.802 21.0273 128.844 21.3773 128.928 21.704C129.012 22.0213 129.138 22.2967 129.306 22.53C129.483 22.7633 129.698 22.95 129.95 23.09C130.211 23.2207 130.519 23.286 130.874 23.286C131.154 23.286 131.429 23.23 131.7 23.118C131.97 22.9967 132.213 22.8007 132.428 22.53V18.344ZM135.948 16.258C135.752 16.258 135.584 16.1833 135.444 16.034C135.304 15.8753 135.234 15.684 135.234 15.46C135.234 15.2453 135.304 15.0587 135.444 14.9C135.584 14.7413 135.752 14.662 135.948 14.662C136.144 14.662 136.312 14.7413 136.452 14.9C136.592 15.0587 136.662 15.2453 136.662 15.46C136.662 15.684 136.592 15.8753 136.452 16.034C136.312 16.1833 136.144 16.258 135.948 16.258ZM136.48 24H135.402V17.42L136.48 17.224V24ZM139.389 17.238L139.473 17.854C139.744 17.6487 140.061 17.4807 140.425 17.35C140.799 17.2193 141.186 17.154 141.587 17.154C142.502 17.154 143.146 17.3827 143.519 17.84C143.902 18.288 144.093 18.9553 144.093 19.842V24H143.015V19.814C143.015 19.254 142.889 18.8153 142.637 18.498C142.385 18.1807 141.975 18.022 141.405 18.022C141.051 18.022 140.701 18.1013 140.355 18.26C140.019 18.4093 139.73 18.5773 139.487 18.764V24H138.409V17.406L139.389 17.238ZM150.352 23.706C150.137 23.818 149.89 23.9113 149.61 23.986C149.339 24.0513 149.05 24.084 148.742 24.084C148.312 24.084 147.911 24.0047 147.538 23.846C147.164 23.6873 146.838 23.4587 146.558 23.16C146.278 22.8613 146.058 22.4973 145.9 22.068C145.741 21.6387 145.662 21.1533 145.662 20.612C145.662 20.0893 145.746 19.618 145.914 19.198C146.091 18.7687 146.334 18.4047 146.642 18.106C146.95 17.798 147.318 17.5647 147.748 17.406C148.177 17.238 148.653 17.154 149.176 17.154C149.53 17.154 149.918 17.1727 150.338 17.21C150.758 17.2473 151.122 17.2893 151.43 17.336V23.846C151.43 24.9007 151.182 25.6613 150.688 26.128C150.202 26.5947 149.502 26.828 148.588 26.828C148 26.828 147.482 26.7393 147.034 26.562C146.586 26.394 146.208 26.1047 145.9 25.694L146.656 25.092C147.066 25.6707 147.71 25.96 148.588 25.96C149.204 25.96 149.652 25.8013 149.932 25.484C150.212 25.176 150.352 24.742 150.352 24.182V23.706ZM150.352 18.12C150.221 18.092 150.053 18.0687 149.848 18.05C149.642 18.0313 149.423 18.022 149.19 18.022C148.891 18.022 148.592 18.078 148.294 18.19C148.004 18.2927 147.743 18.456 147.51 18.68C147.286 18.8947 147.099 19.1653 146.95 19.492C146.81 19.8187 146.74 20.2013 146.74 20.64C146.74 21.004 146.786 21.3447 146.88 21.662C146.982 21.97 147.127 22.236 147.314 22.46C147.51 22.684 147.748 22.8613 148.028 22.992C148.308 23.1227 148.625 23.188 148.98 23.188C149.241 23.188 149.493 23.146 149.736 23.062C149.978 22.978 150.184 22.8847 150.352 22.782V18.12Z" fill="black"/>
<path d="M169.134 24V14.662H172.13C173.175 14.662 173.945 14.8953 174.44 15.362C174.935 15.8287 175.182 16.4447 175.182 17.21C175.182 17.6207 175.121 17.98 175 18.288C174.888 18.5867 174.725 18.8433 174.51 19.058C174.305 19.2727 174.057 19.4453 173.768 19.576C173.488 19.6973 173.185 19.786 172.858 19.842L175.406 24H174.132L171.612 19.912H170.254V24H169.134ZM170.254 18.946H172.06C173.357 18.946 174.006 18.3673 174.006 17.21C174.006 16.678 173.847 16.2813 173.53 16.02C173.213 15.7587 172.755 15.628 172.158 15.628H170.254V18.946ZM177.146 20.598C177.146 21.4473 177.337 22.11 177.72 22.586C178.102 23.0527 178.658 23.286 179.386 23.286C179.806 23.286 180.16 23.1833 180.45 22.978C180.739 22.7727 180.972 22.5207 181.15 22.222L181.864 22.698C181.621 23.118 181.304 23.468 180.912 23.748C180.529 24.0187 180.011 24.154 179.358 24.154C178.854 24.154 178.401 24.0793 178 23.93C177.598 23.7713 177.253 23.5473 176.964 23.258C176.684 22.9593 176.464 22.5907 176.306 22.152C176.156 21.7133 176.082 21.2047 176.082 20.626C176.082 20.094 176.152 19.618 176.292 19.198C176.441 18.7687 176.642 18.4047 176.894 18.106C177.155 17.798 177.468 17.5647 177.832 17.406C178.205 17.238 178.616 17.154 179.064 17.154C179.558 17.154 179.988 17.238 180.352 17.406C180.725 17.574 181.033 17.812 181.276 18.12C181.518 18.4187 181.7 18.7827 181.822 19.212C181.943 19.632 182.004 20.094 182.004 20.598H177.146ZM180.786 19.744C180.776 19.4547 180.72 19.2027 180.618 18.988C180.515 18.764 180.384 18.582 180.226 18.442C180.067 18.2927 179.885 18.1853 179.68 18.12C179.474 18.0453 179.269 18.008 179.064 18.008C178.616 18.008 178.228 18.1433 177.902 18.414C177.584 18.6753 177.365 19.1187 177.244 19.744H180.786ZM184.003 16.258C183.807 16.258 183.639 16.1833 183.499 16.034C183.359 15.8753 183.289 15.684 183.289 15.46C183.289 15.2453 183.359 15.0587 183.499 14.9C183.639 14.7413 183.807 14.662 184.003 14.662C184.199 14.662 184.367 14.7413 184.507 14.9C184.647 15.0587 184.717 15.2453 184.717 15.46C184.717 15.684 184.647 15.8753 184.507 16.034C184.367 16.1833 184.199 16.258 184.003 16.258ZM184.549 17.224V24.028C184.549 24.7467 184.414 25.3113 184.143 25.722C183.872 26.142 183.499 26.4873 183.023 26.758L182.491 25.988C182.659 25.8667 182.804 25.7407 182.925 25.61C183.056 25.4887 183.158 25.3533 183.233 25.204C183.317 25.0547 183.378 24.882 183.415 24.686C183.452 24.4993 183.471 24.28 183.471 24.028V17.42L184.549 17.224ZM187.085 20.598C187.085 21.4473 187.276 22.11 187.659 22.586C188.042 23.0527 188.597 23.286 189.325 23.286C189.745 23.286 190.1 23.1833 190.389 22.978C190.678 22.7727 190.912 22.5207 191.089 22.222L191.803 22.698C191.56 23.118 191.243 23.468 190.851 23.748C190.468 24.0187 189.95 24.154 189.297 24.154C188.793 24.154 188.34 24.0793 187.939 23.93C187.538 23.7713 187.192 23.5473 186.903 23.258C186.623 22.9593 186.404 22.5907 186.245 22.152C186.096 21.7133 186.021 21.2047 186.021 20.626C186.021 20.094 186.091 19.618 186.231 19.198C186.38 18.7687 186.581 18.4047 186.833 18.106C187.094 17.798 187.407 17.5647 187.771 17.406C188.144 17.238 188.555 17.154 189.003 17.154C189.498 17.154 189.927 17.238 190.291 17.406C190.664 17.574 190.972 17.812 191.215 18.12C191.458 18.4187 191.64 18.7827 191.761 19.212C191.882 19.632 191.943 20.094 191.943 20.598H187.085ZM190.725 19.744C190.716 19.4547 190.66 19.2027 190.557 18.988C190.454 18.764 190.324 18.582 190.165 18.442C190.006 18.2927 189.824 18.1853 189.619 18.12C189.414 18.0453 189.208 18.008 189.003 18.008C188.555 18.008 188.168 18.1433 187.841 18.414C187.524 18.6753 187.304 19.1187 187.183 19.744H190.725ZM198.758 22.572C198.497 23.1133 198.138 23.5147 197.68 23.776C197.232 24.028 196.756 24.154 196.252 24.154C195.86 24.154 195.473 24.084 195.09 23.944C194.717 23.804 194.386 23.5893 194.096 23.3C193.807 23.0107 193.574 22.6513 193.396 22.222C193.219 21.7833 193.13 21.27 193.13 20.682C193.13 20.0567 193.219 19.52 193.396 19.072C193.574 18.624 193.807 18.26 194.096 17.98C194.386 17.6907 194.712 17.4807 195.076 17.35C195.44 17.2193 195.804 17.154 196.168 17.154C196.542 17.154 196.868 17.21 197.148 17.322C197.438 17.434 197.68 17.574 197.876 17.742C198.082 17.91 198.245 18.0873 198.366 18.274C198.497 18.4607 198.59 18.6287 198.646 18.778L197.848 19.282C197.652 18.834 197.405 18.512 197.106 18.316C196.808 18.12 196.495 18.022 196.168 18.022C195.916 18.022 195.674 18.0827 195.44 18.204C195.207 18.316 194.997 18.484 194.81 18.708C194.624 18.932 194.474 19.2073 194.362 19.534C194.25 19.8607 194.194 20.234 194.194 20.654C194.194 21.074 194.25 21.4473 194.362 21.774C194.474 22.1007 194.624 22.376 194.81 22.6C195.006 22.824 195.23 22.9967 195.482 23.118C195.744 23.23 196.019 23.286 196.308 23.286C196.635 23.286 196.948 23.1927 197.246 23.006C197.554 22.8193 197.806 22.516 198.002 22.096L198.758 22.572ZM201.595 18.204V22.474C201.595 22.8007 201.656 23.02 201.777 23.132C201.908 23.2347 202.071 23.286 202.267 23.286C202.445 23.286 202.613 23.2487 202.771 23.174C202.93 23.0993 203.075 23.0107 203.205 22.908L203.625 23.636C203.411 23.7947 203.196 23.9207 202.981 24.014C202.776 24.1073 202.482 24.154 202.099 24.154C201.595 24.154 201.208 24.028 200.937 23.776C200.667 23.5147 200.531 23.118 200.531 22.586V18.204H199.383V17.322H200.531V15.6L201.609 15.404V17.322H203.429L203.275 18.204H201.595ZM205.351 20.598C205.351 21.4473 205.542 22.11 205.925 22.586C206.307 23.0527 206.863 23.286 207.591 23.286C208.011 23.286 208.365 23.1833 208.655 22.978C208.944 22.7727 209.177 22.5207 209.355 22.222L210.069 22.698C209.826 23.118 209.509 23.468 209.117 23.748C208.734 24.0187 208.216 24.154 207.563 24.154C207.059 24.154 206.606 24.0793 206.205 23.93C205.803 23.7713 205.458 23.5473 205.169 23.258C204.889 22.9593 204.669 22.5907 204.511 22.152C204.361 21.7133 204.287 21.2047 204.287 20.626C204.287 20.094 204.357 19.618 204.497 19.198C204.646 18.7687 204.847 18.4047 205.099 18.106C205.36 17.798 205.673 17.5647 206.037 17.406C206.41 17.238 206.821 17.154 207.269 17.154C207.763 17.154 208.193 17.238 208.557 17.406C208.93 17.574 209.238 17.812 209.481 18.12C209.723 18.4187 209.905 18.7827 210.027 19.212C210.148 19.632 210.209 20.094 210.209 20.598H205.351ZM208.991 19.744C208.981 19.4547 208.925 19.2027 208.823 18.988C208.72 18.764 208.589 18.582 208.431 18.442C208.272 18.2927 208.09 18.1853 207.885 18.12C207.679 18.0453 207.474 18.008 207.269 18.008C206.821 18.008 206.433 18.1433 206.107 18.414C205.789 18.6753 205.57 19.1187 205.449 19.744H208.991ZM216.17 24L216.086 23.454C215.843 23.706 215.577 23.888 215.288 24C215.008 24.1027 214.7 24.154 214.364 24.154C213.888 24.154 213.463 24.0653 213.09 23.888C212.726 23.7013 212.418 23.4493 212.166 23.132C211.914 22.8147 211.723 22.4413 211.592 22.012C211.461 21.5733 211.396 21.102 211.396 20.598C211.396 20.1687 211.461 19.7487 211.592 19.338C211.732 18.918 211.933 18.5493 212.194 18.232C212.465 17.9053 212.801 17.644 213.202 17.448C213.603 17.252 214.07 17.154 214.602 17.154C214.938 17.154 215.227 17.182 215.47 17.238C215.713 17.2847 215.918 17.3407 216.086 17.406V14.662L217.164 14.48V24H216.17ZM216.086 18.344C216.03 18.3067 215.951 18.2693 215.848 18.232C215.755 18.1947 215.647 18.162 215.526 18.134C215.405 18.0967 215.279 18.0687 215.148 18.05C215.017 18.0313 214.891 18.022 214.77 18.022C214.378 18.022 214.037 18.0967 213.748 18.246C213.459 18.3953 213.216 18.596 213.02 18.848C212.833 19.0907 212.693 19.3707 212.6 19.688C212.507 20.0053 212.46 20.3273 212.46 20.654C212.46 21.0273 212.502 21.3773 212.586 21.704C212.67 22.0213 212.796 22.2967 212.964 22.53C213.141 22.7633 213.356 22.95 213.608 23.09C213.869 23.2207 214.177 23.286 214.532 23.286C214.812 23.286 215.087 23.23 215.358 23.118C215.629 22.9967 215.871 22.8007 216.086 22.53V18.344Z" fill="black"/>
<path d="M237.024 24V15.628H234.126V14.662H241.028V15.628H238.13V24H237.024ZM241.806 20.598C241.806 21.4473 241.997 22.11 242.38 22.586C242.762 23.0527 243.318 23.286 244.046 23.286C244.466 23.286 244.82 23.1833 245.11 22.978C245.399 22.7727 245.632 22.5207 245.81 22.222L246.524 22.698C246.281 23.118 245.964 23.468 245.572 23.748C245.189 24.0187 244.671 24.154 244.018 24.154C243.514 24.154 243.061 24.0793 242.66 23.93C242.258 23.7713 241.913 23.5473 241.624 23.258C241.344 22.9593 241.124 22.5907 240.966 22.152C240.816 21.7133 240.742 21.2047 240.742 20.626C240.742 20.094 240.812 19.618 240.952 19.198C241.101 18.7687 241.302 18.4047 241.554 18.106C241.815 17.798 242.128 17.5647 242.492 17.406C242.865 17.238 243.276 17.154 243.724 17.154C244.218 17.154 244.648 17.238 245.012 17.406C245.385 17.574 245.693 17.812 245.936 18.12C246.178 18.4187 246.36 18.7827 246.482 19.212C246.603 19.632 246.664 20.094 246.664 20.598H241.806ZM245.446 19.744C245.436 19.4547 245.38 19.2027 245.278 18.988C245.175 18.764 245.044 18.582 244.886 18.442C244.727 18.2927 244.545 18.1853 244.34 18.12C244.134 18.0453 243.929 18.008 243.724 18.008C243.276 18.008 242.888 18.1433 242.562 18.414C242.244 18.6753 242.025 19.1187 241.904 19.744H245.446ZM248.173 24V17.406L249.139 17.238L249.237 17.91C249.414 17.7233 249.643 17.5507 249.923 17.392C250.203 17.2333 250.488 17.154 250.777 17.154C250.982 17.154 251.169 17.168 251.337 17.196C251.514 17.224 251.65 17.252 251.743 17.28L251.547 18.274C251.295 18.1713 251.001 18.12 250.665 18.12C250.394 18.12 250.133 18.1947 249.881 18.344C249.638 18.4933 249.428 18.6473 249.251 18.806V24H248.173ZM261.295 24V19.828C261.295 19.268 261.187 18.834 260.973 18.526C260.758 18.2087 260.366 18.05 259.797 18.05C259.61 18.05 259.423 18.078 259.237 18.134C259.05 18.1807 258.873 18.2413 258.705 18.316C258.546 18.3907 258.397 18.47 258.257 18.554C258.126 18.638 258.014 18.7173 257.921 18.792C257.967 18.9507 258 19.1187 258.019 19.296C258.047 19.464 258.061 19.688 258.061 19.968V24H256.983V19.828C256.983 19.5853 256.959 19.3567 256.913 19.142C256.875 18.9273 256.801 18.7407 256.689 18.582C256.586 18.414 256.446 18.2833 256.269 18.19C256.091 18.0967 255.863 18.05 255.583 18.05C255.256 18.05 254.929 18.134 254.603 18.302C254.285 18.4607 254.005 18.624 253.763 18.792V24H252.685V17.406L253.665 17.238L253.749 17.854C253.973 17.6953 254.262 17.5413 254.617 17.392C254.971 17.2333 255.359 17.154 255.779 17.154C256.133 17.154 256.474 17.2147 256.801 17.336C257.137 17.4573 257.417 17.6813 257.641 18.008C257.921 17.7747 258.261 17.574 258.663 17.406C259.064 17.238 259.503 17.154 259.979 17.154C260.445 17.154 260.833 17.2193 261.141 17.35C261.458 17.4713 261.705 17.6533 261.883 17.896C262.069 18.1293 262.2 18.4233 262.275 18.778C262.349 19.1233 262.387 19.52 262.387 19.968V24H261.295ZM264.825 16.258C264.629 16.258 264.461 16.1833 264.321 16.034C264.181 15.8753 264.111 15.684 264.111 15.46C264.111 15.2453 264.181 15.0587 264.321 14.9C264.461 14.7413 264.629 14.662 264.825 14.662C265.021 14.662 265.189 14.7413 265.329 14.9C265.469 15.0587 265.539 15.2453 265.539 15.46C265.539 15.684 265.469 15.8753 265.329 16.034C265.189 16.1833 265.021 16.258 264.825 16.258ZM265.357 24H264.279V17.42L265.357 17.224V24ZM268.266 17.238L268.35 17.854C268.621 17.6487 268.938 17.4807 269.302 17.35C269.676 17.2193 270.063 17.154 270.464 17.154C271.379 17.154 272.023 17.3827 272.396 17.84C272.779 18.288 272.97 18.9553 272.97 19.842V24H271.892V19.814C271.892 19.254 271.766 18.8153 271.514 18.498C271.262 18.1807 270.852 18.022 270.282 18.022C269.928 18.022 269.578 18.1013 269.232 18.26C268.896 18.4093 268.607 18.5773 268.364 18.764V24H267.286V17.406L268.266 17.238ZM278.571 24L278.515 23.426C278.281 23.6593 278.011 23.8413 277.703 23.972C277.404 24.0933 277.073 24.154 276.709 24.154C276.419 24.154 276.135 24.1073 275.855 24.014C275.584 23.93 275.341 23.804 275.127 23.636C274.921 23.4587 274.753 23.2393 274.623 22.978C274.492 22.7167 274.427 22.4133 274.427 22.068C274.427 21.592 274.553 21.2 274.805 20.892C275.066 20.5747 275.393 20.3273 275.785 20.15C276.177 19.9727 276.611 19.8467 277.087 19.772C277.563 19.6973 278.025 19.66 278.473 19.66V19.576C278.473 19.016 278.351 18.6147 278.109 18.372C277.875 18.1293 277.535 18.008 277.087 18.008C276.779 18.008 276.494 18.078 276.233 18.218C275.981 18.3487 275.766 18.526 275.589 18.75L274.833 18.218C275.103 17.854 275.421 17.588 275.785 17.42C276.158 17.2427 276.625 17.154 277.185 17.154C277.931 17.154 278.51 17.3453 278.921 17.728C279.341 18.1107 279.551 18.75 279.551 19.646V24H278.571ZM278.473 20.514C278.165 20.5233 277.838 20.5467 277.493 20.584C277.147 20.6213 276.825 20.696 276.527 20.808C276.237 20.9107 275.995 21.0647 275.799 21.27C275.612 21.4753 275.519 21.746 275.519 22.082C275.519 22.2967 275.561 22.4787 275.645 22.628C275.729 22.7773 275.831 22.9033 275.953 23.006C276.083 23.0993 276.223 23.1693 276.373 23.216C276.531 23.2533 276.685 23.272 276.835 23.272C277.161 23.272 277.46 23.2067 277.731 23.076C278.011 22.936 278.258 22.7727 278.473 22.586V20.514ZM282.949 18.204V22.474C282.949 22.8007 283.009 23.02 283.131 23.132C283.261 23.2347 283.425 23.286 283.621 23.286C283.798 23.286 283.966 23.2487 284.125 23.174C284.283 23.0993 284.428 23.0107 284.559 22.908L284.979 23.636C284.764 23.7947 284.549 23.9207 284.335 24.014C284.129 24.1073 283.835 24.154 283.453 24.154C282.949 24.154 282.561 24.028 282.291 23.776C282.02 23.5147 281.885 23.118 281.885 22.586V18.204H280.737V17.322H281.885V15.6L282.963 15.404V17.322H284.783L284.629 18.204H282.949ZM286.704 20.598C286.704 21.4473 286.895 22.11 287.278 22.586C287.661 23.0527 288.216 23.286 288.944 23.286C289.364 23.286 289.719 23.1833 290.008 22.978C290.297 22.7727 290.531 22.5207 290.708 22.222L291.422 22.698C291.179 23.118 290.862 23.468 290.47 23.748C290.087 24.0187 289.569 24.154 288.916 24.154C288.412 24.154 287.959 24.0793 287.558 23.93C287.157 23.7713 286.811 23.5473 286.522 23.258C286.242 22.9593 286.023 22.5907 285.864 22.152C285.715 21.7133 285.64 21.2047 285.64 20.626C285.64 20.094 285.71 19.618 285.85 19.198C285.999 18.7687 286.2 18.4047 286.452 18.106C286.713 17.798 287.026 17.5647 287.39 17.406C287.763 17.238 288.174 17.154 288.622 17.154C289.117 17.154 289.546 17.238 289.91 17.406C290.283 17.574 290.591 17.812 290.834 18.12C291.077 18.4187 291.259 18.7827 291.38 19.212C291.501 19.632 291.562 20.094 291.562 20.598H286.704ZM290.344 19.744C290.335 19.4547 290.279 19.2027 290.176 18.988C290.073 18.764 289.943 18.582 289.784 18.442C289.625 18.2927 289.443 18.1853 289.238 18.12C289.033 18.0453 288.827 18.008 288.622 18.008C288.174 18.008 287.787 18.1433 287.46 18.414C287.143 18.6753 286.923 19.1187 286.802 19.744H290.344ZM297.523 24L297.439 23.454C297.197 23.706 296.931 23.888 296.641 24C296.361 24.1027 296.053 24.154 295.717 24.154C295.241 24.154 294.817 24.0653 294.443 23.888C294.079 23.7013 293.771 23.4493 293.519 23.132C293.267 22.8147 293.076 22.4413 292.945 22.012C292.815 21.5733 292.749 21.102 292.749 20.598C292.749 20.1687 292.815 19.7487 292.945 19.338C293.085 18.918 293.286 18.5493 293.547 18.232C293.818 17.9053 294.154 17.644 294.555 17.448C294.957 17.252 295.423 17.154 295.955 17.154C296.291 17.154 296.581 17.182 296.823 17.238C297.066 17.2847 297.271 17.3407 297.439 17.406V14.662L298.517 14.48V24H297.523ZM297.439 18.344C297.383 18.3067 297.304 18.2693 297.201 18.232C297.108 18.1947 297.001 18.162 296.879 18.134C296.758 18.0967 296.632 18.0687 296.501 18.05C296.371 18.0313 296.245 18.022 296.123 18.022C295.731 18.022 295.391 18.0967 295.101 18.246C294.812 18.3953 294.569 18.596 294.373 18.848C294.187 19.0907 294.047 19.3707 293.953 19.688C293.86 20.0053 293.813 20.3273 293.813 20.654C293.813 21.0273 293.855 21.3773 293.939 21.704C294.023 22.0213 294.149 22.2967 294.317 22.53C294.495 22.7633 294.709 22.95 294.961 23.09C295.223 23.2207 295.531 23.286 295.885 23.286C296.165 23.286 296.441 23.23 296.711 23.118C296.982 22.9967 297.225 22.8007 297.439 22.53V18.344Z" fill="black"/>
<rect width="90" height="40" rx="20" fill="url(#paint0_linear_0_1)"/>
<path d="M15 25L18.836 15.662H20.166L24.058 25H22.028L21.272 23.124H17.674L16.904 25H15ZM18.248 21.542H20.656L19.452 18.476L18.248 21.542ZM24.9745 27.646V18.42L26.6265 18.168L26.7245 18.756C26.8925 18.5973 27.1118 18.448 27.3825 18.308C27.6625 18.1587 27.9985 18.084 28.3905 18.084C28.8851 18.084 29.3145 18.1727 29.6785 18.35C30.0518 18.5273 30.3598 18.77 30.6025 19.078C30.8451 19.386 31.0271 19.7547 31.1485 20.184C31.2698 20.604 31.3305 21.066 31.3305 21.57C31.3305 22.0087 31.2605 22.4427 31.1205 22.872C30.9805 23.3013 30.7611 23.684 30.4625 24.02C30.1731 24.356 29.8045 24.6313 29.3565 24.846C28.9085 25.0513 28.3718 25.154 27.7465 25.154C27.5878 25.154 27.4245 25.1353 27.2565 25.098C27.0885 25.0607 26.9391 25.014 26.8085 24.958V27.646H24.9745ZM26.7945 23.446C27.1025 23.5767 27.3871 23.642 27.6485 23.642C27.9845 23.642 28.2691 23.586 28.5025 23.474C28.7451 23.362 28.9411 23.2127 29.0905 23.026C29.2491 22.83 29.3658 22.6107 29.4405 22.368C29.5151 22.1253 29.5525 21.878 29.5525 21.626C29.5525 21.346 29.5245 21.08 29.4685 20.828C29.4125 20.5667 29.3238 20.3427 29.2025 20.156C29.0811 19.9693 28.9225 19.82 28.7265 19.708C28.5305 19.596 28.2925 19.54 28.0125 19.54C27.7605 19.54 27.5225 19.61 27.2985 19.75C27.0745 19.8807 26.9065 20.0253 26.7945 20.184V23.446ZM32.7264 27.646V18.42L34.3784 18.168L34.4764 18.756C34.6444 18.5973 34.8637 18.448 35.1344 18.308C35.4144 18.1587 35.7504 18.084 36.1424 18.084C36.6371 18.084 37.0664 18.1727 37.4304 18.35C37.8037 18.5273 38.1117 18.77 38.3544 19.078C38.5971 19.386 38.7791 19.7547 38.9004 20.184C39.0217 20.604 39.0824 21.066 39.0824 21.57C39.0824 22.0087 39.0124 22.4427 38.8724 22.872C38.7324 23.3013 38.5131 23.684 38.2144 24.02C37.9251 24.356 37.5564 24.6313 37.1084 24.846C36.6604 25.0513 36.1237 25.154 35.4984 25.154C35.3397 25.154 35.1764 25.1353 35.0084 25.098C34.8404 25.0607 34.6911 25.014 34.5604 24.958V27.646H32.7264ZM34.5464 23.446C34.8544 23.5767 35.1391 23.642 35.4004 23.642C35.7364 23.642 36.0211 23.586 36.2544 23.474C36.4971 23.362 36.6931 23.2127 36.8424 23.026C37.0011 22.83 37.1177 22.6107 37.1924 22.368C37.2671 22.1253 37.3044 21.878 37.3044 21.626C37.3044 21.346 37.2764 21.08 37.2204 20.828C37.1644 20.5667 37.0757 20.3427 36.9544 20.156C36.8331 19.9693 36.6744 19.82 36.4784 19.708C36.2824 19.596 36.0444 19.54 35.7644 19.54C35.5124 19.54 35.2744 19.61 35.0504 19.75C34.8264 19.8807 34.6584 20.0253 34.5464 20.184V23.446ZM40.4784 25V18.42L42.1304 18.168L42.2284 18.84C42.4804 18.5693 42.7324 18.3827 42.9844 18.28C43.2457 18.168 43.5164 18.112 43.7964 18.112C43.955 18.112 44.123 18.1307 44.3004 18.168C44.4777 18.2053 44.6597 18.2567 44.8464 18.322L44.5244 19.904C44.3377 19.8293 44.1604 19.7733 43.9924 19.736C43.8337 19.6893 43.675 19.666 43.5164 19.666C43.255 19.666 43.017 19.7267 42.8024 19.848C42.597 19.9693 42.4337 20.1093 42.3124 20.268V25H40.4784ZM48.519 25.154C47.9496 25.154 47.4503 25.0513 47.021 24.846C46.601 24.6407 46.2463 24.37 45.957 24.034C45.677 23.698 45.467 23.32 45.327 22.9C45.187 22.4707 45.117 22.0367 45.117 21.598C45.117 21.1593 45.187 20.73 45.327 20.31C45.467 19.89 45.677 19.5167 45.957 19.19C46.2463 18.854 46.601 18.588 47.021 18.392C47.4503 18.1867 47.9496 18.084 48.519 18.084C49.0883 18.084 49.583 18.1867 50.003 18.392C50.4323 18.588 50.787 18.854 51.067 19.19C51.3563 19.5167 51.571 19.89 51.711 20.31C51.851 20.73 51.921 21.1593 51.921 21.598C51.921 22.0367 51.851 22.4707 51.711 22.9C51.571 23.32 51.3563 23.698 51.067 24.034C50.787 24.37 50.4323 24.6407 50.003 24.846C49.583 25.0513 49.0883 25.154 48.519 25.154ZM46.909 21.598C46.909 21.8873 46.9416 22.158 47.007 22.41C47.0816 22.6527 47.1843 22.8673 47.315 23.054C47.455 23.2407 47.623 23.39 47.819 23.502C48.0243 23.6047 48.2576 23.656 48.519 23.656C48.7803 23.656 49.009 23.6047 49.205 23.502C49.4103 23.39 49.5783 23.2407 49.709 23.054C49.849 22.8673 49.9516 22.6527 50.017 22.41C50.0916 22.158 50.129 21.8873 50.129 21.598C50.129 21.318 50.0916 21.052 50.017 20.8C49.9516 20.548 49.849 20.3333 49.709 20.156C49.5783 19.9693 49.4103 19.8247 49.205 19.722C49.009 19.61 48.7803 19.554 48.519 19.554C48.2576 19.554 48.0243 19.61 47.819 19.722C47.623 19.8247 47.455 19.9693 47.315 20.156C47.1843 20.3333 47.0816 20.548 47.007 20.8C46.9416 21.052 46.909 21.318 46.909 21.598ZM55.0328 25L52.0508 18.252H53.9968L55.8588 22.732L57.6508 18.252H59.5128L56.6148 25H55.0328ZM61.5662 22.06C61.5942 22.34 61.6549 22.5827 61.7482 22.788C61.8415 22.9933 61.9582 23.1613 62.0982 23.292C62.2382 23.4227 62.3922 23.5207 62.5602 23.586C62.7375 23.642 62.9195 23.67 63.1062 23.67C63.4329 23.67 63.7269 23.614 63.9882 23.502C64.2495 23.3807 64.5202 23.124 64.8002 22.732L66.1582 23.558C65.7662 24.146 65.3182 24.5613 64.8142 24.804C64.3195 25.0373 63.7315 25.154 63.0502 25.154C62.6022 25.154 62.1775 25.084 61.7762 24.944C61.3749 24.804 61.0202 24.5893 60.7122 24.3C60.4135 24.0013 60.1755 23.6327 59.9982 23.194C59.8209 22.7553 59.7322 22.2327 59.7322 21.626C59.7322 21.0567 59.8162 20.5527 59.9842 20.114C60.1615 19.6753 60.3995 19.3067 60.6982 19.008C60.9969 18.7093 61.3422 18.4807 61.7342 18.322C62.1355 18.1633 62.5602 18.084 63.0082 18.084C63.9509 18.084 64.7069 18.4153 65.2762 19.078C65.8549 19.7313 66.1535 20.7253 66.1722 22.06H61.5662ZM64.3102 20.814C64.2915 20.59 64.2402 20.394 64.1562 20.226C64.0815 20.058 63.9835 19.918 63.8622 19.806C63.7409 19.694 63.6055 19.61 63.4562 19.554C63.3069 19.498 63.1575 19.47 63.0082 19.47C62.6909 19.47 62.3922 19.5913 62.1122 19.834C61.8322 20.0673 61.6642 20.394 61.6082 20.814H64.3102ZM71.8197 25L71.7357 24.482C71.5677 24.6593 71.3483 24.818 71.0777 24.958C70.807 25.0887 70.485 25.154 70.1117 25.154C69.617 25.154 69.183 25.0607 68.8097 24.874C68.4363 24.6873 68.119 24.4353 67.8577 24.118C67.6057 23.7913 67.4143 23.4133 67.2837 22.984C67.153 22.5547 67.0877 22.0927 67.0877 21.598C67.0877 21.1593 67.1577 20.73 67.2977 20.31C67.4377 19.89 67.6477 19.5167 67.9277 19.19C68.2077 18.854 68.5577 18.588 68.9777 18.392C69.3977 18.1867 69.8923 18.084 70.4617 18.084C70.8257 18.084 71.227 18.1493 71.6657 18.28V15.746L73.4857 15.466V25H71.8197ZM71.6657 19.75C71.3017 19.6193 70.975 19.554 70.6857 19.554C70.3777 19.554 70.107 19.61 69.8737 19.722C69.6497 19.834 69.463 19.988 69.3137 20.184C69.1643 20.3707 69.0523 20.5853 68.9777 20.828C68.903 21.0613 68.8657 21.304 68.8657 21.556C68.8657 21.8453 68.8937 22.1207 68.9497 22.382C69.015 22.634 69.113 22.858 69.2437 23.054C69.3743 23.2407 69.5377 23.39 69.7337 23.502C69.939 23.614 70.1863 23.67 70.4757 23.67C70.6997 23.67 70.9283 23.614 71.1617 23.502C71.395 23.3807 71.563 23.2407 71.6657 23.082V19.75Z" fill="white"/>
<defs>
<linearGradient id="paint0_linear_0_1" x1="40.9068" y1="-7.7548e-08" x2="61.0191" y2="32.6548" gradientUnits="userSpaceOnUse">
<stop stop-color="#3FBCE6"/>
<stop offset="1" stop-color="#36A8DE"/>
</linearGradient>
</defs>
</svg>
