<svg width="90" height="38" viewBox="0 0 90 38" fill="none" xmlns="http://www.w3.org/2000/svg">
<mask id="path-1-inside-1_3312_61903" fill="white">
<path d="M0 4C0 1.79086 1.79086 0 4 0H86C88.2091 0 90 1.79086 90 4V34C90 36.2091 88.2091 38 86 38H4C1.79086 38 0 36.2091 0 34V4Z"/>
</mask>
<path d="M0 4C0 1.79086 1.79086 0 4 0H86C88.2091 0 90 1.79086 90 4V34C90 36.2091 88.2091 38 86 38H4C1.79086 38 0 36.2091 0 34V4Z" fill="#38AEE0"/>
<path d="M4 0V1H86V0V-1H4V0ZM90 4H89V34H90H91V4H90ZM86 38V37H4V38V39H86V38ZM0 34H1V4H0H-1V34H0ZM4 38V37C2.34315 37 1 35.6569 1 34H0H-1C-1 36.7614 1.23858 39 4 39V38ZM90 34H89C89 35.6569 87.6569 37 86 37V38V39C88.7614 39 91 36.7614 91 34H90ZM86 0V1C87.6569 1 89 2.34315 89 4H90H91C91 1.23858 88.7614 -1 86 -1V0ZM4 0V-1C1.23858 -1 -1 1.23858 -1 4H0H1C1 2.34315 2.34315 1 4 1V0Z" fill="#38AEE0" mask="url(#path-1-inside-1_3312_61903)"/>
<path d="M24.306 21.522C24.5207 21.8767 24.81 22.1473 25.174 22.334C25.538 22.5113 25.9487 22.6 26.406 22.6C26.882 22.6 27.26 22.5067 27.54 22.32C27.8293 22.1333 27.974 21.886 27.974 21.578C27.974 21.382 27.9413 21.2093 27.876 21.06C27.8107 20.9107 27.6987 20.7707 27.54 20.64C27.3813 20.5093 27.162 20.3833 26.882 20.262C26.602 20.1313 26.2473 19.9913 25.818 19.842C25.4167 19.702 25.0527 19.5527 24.726 19.394C24.4087 19.2353 24.1333 19.0487 23.9 18.834C23.676 18.6193 23.5033 18.372 23.382 18.092C23.2607 17.8027 23.2 17.462 23.2 17.07C23.2 16.6873 23.2653 16.3373 23.396 16.02C23.536 15.7027 23.7413 15.4273 24.012 15.194C24.292 14.9607 24.6373 14.7833 25.048 14.662C25.4587 14.5313 25.9393 14.466 26.49 14.466C26.9473 14.466 27.3487 14.5127 27.694 14.606C28.0487 14.69 28.352 14.8067 28.604 14.956C28.8653 15.1053 29.0893 15.278 29.276 15.474C29.4627 15.67 29.626 15.8753 29.766 16.09L28.408 17.056C28.24 16.748 28.002 16.5007 27.694 16.314C27.386 16.118 26.98 16.02 26.476 16.02C26 16.02 25.636 16.104 25.384 16.272C25.1413 16.44 25.02 16.6593 25.02 16.93C25.02 17.2567 25.174 17.5273 25.482 17.742C25.7993 17.9473 26.28 18.1667 26.924 18.4C27.4 18.568 27.8153 18.7453 28.17 18.932C28.534 19.1187 28.8373 19.3333 29.08 19.576C29.3227 19.8093 29.5047 20.08 29.626 20.388C29.7567 20.696 29.822 21.06 29.822 21.48C29.822 21.9373 29.724 22.3387 29.528 22.684C29.3413 23.02 29.0893 23.3 28.772 23.524C28.464 23.748 28.1047 23.916 27.694 24.028C27.2833 24.14 26.8633 24.196 26.434 24.196C24.7353 24.196 23.5453 23.622 22.864 22.474L24.306 21.522ZM35.7953 24L35.7253 23.468C35.3986 23.7293 35.0626 23.9067 34.7173 24C34.372 24.0933 34.0313 24.14 33.6953 24.14C33.2566 24.14 32.874 24.0747 32.5473 23.944C32.23 23.804 31.964 23.608 31.7493 23.356C31.544 23.104 31.39 22.8053 31.2873 22.46C31.194 22.1053 31.1473 21.7087 31.1473 21.27V17.434L32.9813 17.154V21.088C32.9813 21.34 32.9953 21.564 33.0233 21.76C33.0606 21.956 33.1213 22.124 33.2053 22.264C33.2893 22.404 33.406 22.5113 33.5553 22.586C33.714 22.6513 33.9146 22.684 34.1573 22.684C34.512 22.684 34.8106 22.614 35.0533 22.474C35.296 22.3247 35.492 22.1893 35.6413 22.068V17.252H37.4753V24H35.7953ZM41.1307 14.466V17.238C41.3267 17.1913 41.5134 17.154 41.6907 17.126C41.8681 17.098 42.0781 17.084 42.3207 17.084C42.8807 17.084 43.3661 17.182 43.7767 17.378C44.1967 17.574 44.5421 17.8353 44.8127 18.162C45.0927 18.4793 45.2981 18.8433 45.4287 19.254C45.5687 19.6553 45.6387 20.0707 45.6387 20.5C45.6387 21.1533 45.5407 21.7133 45.3447 22.18C45.1487 22.6373 44.8827 23.0153 44.5467 23.314C44.2107 23.6033 43.8187 23.818 43.3707 23.958C42.9321 24.0887 42.4654 24.154 41.9707 24.154C41.5134 24.154 41.0607 24.1027 40.6127 24C40.1647 23.8973 39.7261 23.7573 39.2967 23.58V14.746L41.1307 14.466ZM41.1307 22.558C41.3921 22.642 41.6487 22.684 41.9007 22.684C42.4887 22.684 42.9601 22.502 43.3147 22.138C43.6787 21.774 43.8607 21.242 43.8607 20.542C43.8607 20.206 43.8141 19.9167 43.7207 19.674C43.6274 19.422 43.4967 19.2167 43.3287 19.058C43.1607 18.89 42.9647 18.764 42.7407 18.68C42.5167 18.596 42.2787 18.554 42.0267 18.554C41.7654 18.554 41.4667 18.6053 41.1307 18.708V22.558ZM50.563 17.084C51.039 17.084 51.445 17.1587 51.781 17.308C52.1263 17.4573 52.411 17.6673 52.635 17.938C52.943 17.6673 53.2883 17.4573 53.671 17.308C54.063 17.1587 54.4737 17.084 54.903 17.084C55.7897 17.084 56.4523 17.3313 56.891 17.826C57.3297 18.3207 57.549 19.0207 57.549 19.926V24H55.729V20.038C55.729 19.8327 55.7103 19.6413 55.673 19.464C55.6357 19.2773 55.575 19.1187 55.491 18.988C55.407 18.848 55.2903 18.7407 55.141 18.666C55.001 18.582 54.8237 18.54 54.609 18.54C54.3477 18.54 54.0817 18.61 53.811 18.75C53.5497 18.89 53.3303 19.0627 53.153 19.268C53.1717 19.3707 53.1857 19.478 53.195 19.59C53.2043 19.6927 53.209 19.8047 53.209 19.926V24H51.389V20.038C51.389 19.8327 51.3703 19.6413 51.333 19.464C51.2957 19.2773 51.235 19.1187 51.151 18.988C51.067 18.848 50.9503 18.7407 50.801 18.666C50.661 18.582 50.4837 18.54 50.269 18.54C49.9983 18.54 49.737 18.61 49.485 18.75C49.233 18.89 49.0277 19.0393 48.869 19.198V24H47.035V17.42L48.701 17.168L48.785 17.756C48.9997 17.5693 49.2657 17.4107 49.583 17.28C49.9097 17.1493 50.2363 17.084 50.563 17.084ZM60.236 16.482C59.872 16.482 59.5967 16.3793 59.41 16.174C59.2327 15.9687 59.144 15.74 59.144 15.488C59.144 15.2453 59.2327 15.0213 59.41 14.816C59.5967 14.6107 59.872 14.508 60.236 14.508C60.6 14.508 60.8707 14.6107 61.048 14.816C61.2347 15.0213 61.328 15.2453 61.328 15.488C61.328 15.74 61.2347 15.9687 61.048 16.174C60.8707 16.3793 60.6 16.482 60.236 16.482ZM59.326 24V17.434L61.146 17.154V24H59.326ZM65.0767 18.652V22.096C65.0767 22.3107 65.1234 22.46 65.2167 22.544C65.3194 22.6187 65.4174 22.656 65.5107 22.656C65.6974 22.656 65.8794 22.6093 66.0567 22.516C66.2341 22.4227 66.3881 22.3247 66.5187 22.222L67.1767 23.468C66.8687 23.6733 66.5467 23.8413 66.2107 23.972C65.8747 24.0933 65.5107 24.154 65.1187 24.154C64.8854 24.154 64.6567 24.1213 64.4327 24.056C64.2087 23.9907 64.0081 23.888 63.8307 23.748C63.6627 23.608 63.5227 23.426 63.4107 23.202C63.3081 22.9687 63.2567 22.6887 63.2567 22.362V18.652H62.2627V17.252H63.2567V15.684L65.0767 15.404V17.252H66.8267L66.6027 18.652H65.0767Z" fill="#F5F5F5"/>
</svg>
