<svg width="16" height="16" viewBox="0 0 16 16" fill="none" xmlns="http://www.w3.org/2000/svg">
<path fill-rule="evenodd" clip-rule="evenodd" d="M3 0H13C14.6569 0 16 1.34315 16 3V13C16 14.6569 14.6569 16 13 16H3C1.34315 16 0 14.6569 0 13V3C0 1.34315 1.34315 0 3 0ZM12.7176 5.69646C13.1022 5.30015 13.0928 4.66705 12.6965 4.28241C12.3001 3.89776 11.6671 3.90722 11.2824 4.30354L6.1767 9.56417L4.7176 8.06079C4.33295 7.66447 3.69986 7.65501 3.30354 8.03966C2.90722 8.4243 2.89776 9.05739 3.2824 9.45371L5.4591 11.6965C5.64742 11.8905 5.90629 12 6.17669 12C6.44709 12 6.70597 11.8905 6.89429 11.6965L12.7176 5.69646Z" fill="#838383"/>
</svg>
