<svg width="24" height="24" viewBox="0 0 24 24" fill="none" xmlns="http://www.w3.org/2000/svg">
<mask id="mask0_2784_30292" style="mask-type:luminance" maskUnits="userSpaceOnUse" x="0" y="0" width="24" height="24">
<path d="M0 0H24V24H0V0Z" fill="white"/>
</mask>
<g mask="url(#mask0_2784_30292)">
<path d="M2.23779 9.03475C2.23779 7.92087 3.47543 5.81689 5.08436 5.19807C6.69328 4.57925 9.16856 4.57925 12.5102 4.57925C16.0993 4.57925 19.6885 5.19807 19.6885 5.19807L16.8419 2.35151L18.0795 0L24.7628 6.807L17.9558 13.614L16.7181 11.2625L19.5647 8.41593C19.5647 8.41593 15.9756 7.79711 12.2626 7.79711C9.04479 7.79711 6.56952 7.79711 4.96059 8.41593C3.35167 9.03475 2.23779 12.9952 2.23779 12.9952V9.03475Z" fill="#5856D6"/>
<path d="M22.5345 15.9621C22.5345 17.0759 21.2969 19.1799 19.6879 19.7987C18.079 20.4176 15.6037 20.4176 12.2621 20.4176C8.67298 20.4176 5.08383 19.7987 5.08383 19.7987L7.93039 22.6453L6.69276 24.9968L0.00952148 18.1898L6.81652 11.3828L8.05416 13.7343L5.20759 16.5809C5.20759 16.5809 8.79674 17.1997 12.5096 17.1997C15.7275 17.1997 18.2028 17.1997 19.8117 16.5809C21.4206 15.9621 22.5345 12.0016 22.5345 12.0016V15.9621Z" fill="#5856D6"/>
</g>
</svg>